<?xml version="1.0" encoding="UTF-8" standalone="no"?>
<!DOCTYPE svg PUBLIC "-//W3C//DTD SVG 1.1//EN"
 "http://www.w3.org/Graphics/SVG/1.1/DTD/svg11.dtd">
<!-- Generated by graphviz version 2.47.0 (20210316.0004)
 -->
<!-- Title: dependencies Pages: 1 -->
<svg height="284pt" viewBox="0.00 0.00 5599.00 284.00"
     width="5599pt" xmlns="http://www.w3.org/2000/svg">
<g class="graph" id="graph0" transform="scale(1 1) rotate(0) translate(4 280)">
<title>dependencies</title>
<polygon fill="white" points="-4,4 -4,-280 5595,-280 5595,4 -4,4" stroke="transparent"/>
<text font-family="Times-12" font-size="14.00" font-weight="bold" text-anchor="start" x="2774.51" y="-42.4">Legend</text>
<polygon fill="#ffffb3" points="2561.5,-10 2561.5,-30 2581.5,-30 2581.5,-10 2561.5,-10" stroke="transparent"/>
<text font-family="Times-12" font-size="14.00" text-anchor="start" x="2585.13" y="-15.4"> &#160;Declarations</text>
<polygon fill="#8dd3c7" points="2674.5,-10 2674.5,-30 2694.5,-30 2694.5,-10 2674.5,-10" stroke="transparent"/>
<text font-family="Times-12" font-size="14.00" text-anchor="start" x="2698.23" y="-15.4"> &#160;Module</text>
<polygon fill="#80b1d3" points="2760.5,-10 2760.5,-30 2780.5,-30 2780.5,-10 2760.5,-10" stroke="transparent"/>
<text font-family="Times-12" font-size="14.00" text-anchor="start" x="2784.28" y="-15.4"> &#160;Bootstrap</text>
<polygon fill="#fdb462" points="2857.5,-10 2857.5,-30 2877.5,-30 2877.5,-10 2857.5,-10" stroke="transparent"/>
<text font-family="Times-12" font-size="14.00" text-anchor="start" x="2881.17" y="-15.4"> &#160;Providers</text>
<polygon fill="#fb8072" points="2953.5,-10 2953.5,-30 2973.5,-30 2973.5,-10 2953.5,-10" stroke="transparent"/>
<text font-family="Times-12" font-size="14.00" text-anchor="start" x="2977.23" y="-15.4"> &#160;Exports</text>
<g class="cluster" id="clust1">
<title>cluster_AppModule</title>
<polygon fill="none" points="8,-70 8,-268 5583,-268 5583,-70 8,-70" stroke="black" stroke-dasharray="1,5"/>
</g>
<g class="cluster" id="clust2">
<title>cluster_AppModule_declarations</title>
<polygon fill="none" points="473,-78 473,-130 5575,-130 5575,-78 473,-78" stroke="black"/>
</g>
<g class="cluster" id="clust33">
<title>cluster_AppModule_imports</title>
<polygon fill="none" points="321,-78 321,-130 465,-130 465,-78 321,-78" stroke="black"/>
</g>
<g class="cluster" id="clust35">
<title>cluster_AppModule_bootstrap</title>
<polygon fill="none" points="2748,-208 2748,-260 2872,-260 2872,-208 2748,-208" stroke="black"/>
</g>
<g class="cluster" id="clust36">
<title>cluster_AppModule_providers</title>
<polygon fill="none" points="16,-78 16,-130 313,-130 313,-78 16,-78" stroke="black"/>
</g>
<!-- AboutComponent -->
<g class="node" id="node1">
<title>AboutComponent</title>
<polygon fill="#ffffb3" points="5567.33,-122 5450.67,-122 5450.67,-86 5567.33,-86 5567.33,-122" stroke="black"/>
<text font-family="Times,serif" font-size="14.00" text-anchor="middle" x="5509" y="-99.8">AboutComponent</text>
</g>
<!-- AppModule -->
<g class="node" id="node31">
<title>AppModule</title>
<polygon fill="#8dd3c7" points="2851.66,-187 2848.66,-191 2827.66,-191 2824.66,-187 2768.34,-187 2768.34,-151 2851.66,-151 2851.66,-187" stroke="black"/>
<text font-family="Times,serif" font-size="14.00" text-anchor="middle" x="2810" y="-164.8">AppModule</text>
</g>
<!-- AboutComponent&#45;&gt;AppModule -->
<g class="edge" id="edge1">
<title>AboutComponent&#45;&gt;AppModule</title>
<path d="M5509,-122.38C5509,-146.28 5509,-185 5509,-185 5509,-185 2861.85,-185 2861.85,-185" fill="none" stroke="black"/>
<polygon fill="black" points="2861.85,-181.5 2851.85,-185 2861.85,-188.5 2861.85,-181.5" stroke="black"/>
</g>
<!-- AppComponent -->
<g class="node" id="node2">
<title>AppComponent</title>
<polygon fill="#ffffb3" points="5432.94,-122 5327.06,-122 5327.06,-86 5432.94,-86 5432.94,-122" stroke="black"/>
<text font-family="Times,serif" font-size="14.00" text-anchor="middle" x="5380" y="-99.8">AppComponent</text>
</g>
<!-- AppComponent&#45;&gt;AppModule -->
<g class="edge" id="edge2">
<title>AppComponent&#45;&gt;AppModule</title>
<path d="M5380,-122.32C5380,-145.66 5380,-183 5380,-183 5380,-183 2861.67,-183 2861.67,-183" fill="none" stroke="black"/>
<polygon fill="black" points="2861.67,-179.5 2851.67,-183 2861.67,-186.5 2861.67,-179.5" stroke="black"/>
</g>
<!-- ConfirmationDialog -->
<g class="node" id="node3">
<title>ConfirmationDialog</title>
<polygon fill="#ffffb3" points="5309.54,-122 5180.46,-122 5180.46,-86 5309.54,-86 5309.54,-122" stroke="black"/>
<text font-family="Times,serif" font-size="14.00" text-anchor="middle" x="5245" y="-99.8">ConfirmationDialog</text>
</g>
<!-- ConfirmationDialog&#45;&gt;AppModule -->
<g class="edge" id="edge3">
<title>ConfirmationDialog&#45;&gt;AppModule</title>
<path d="M5245,-122.25C5245,-145.02 5245,-181 5245,-181 5245,-181 2861.75,-181 2861.75,-181" fill="none" stroke="black"/>
<polygon fill="black" points="2861.75,-177.5 2851.75,-181 2861.75,-184.5 2861.75,-177.5" stroke="black"/>
</g>
<!-- CreateQuizComponent -->
<g class="node" id="node4">
<title>CreateQuizComponent</title>
<polygon fill="#ffffb3" points="5162.58,-122 5017.42,-122 5017.42,-86 5162.58,-86 5162.58,-122" stroke="black"/>
<text font-family="Times,serif" font-size="14.00" text-anchor="middle" x="5090" y="-99.8">CreateQuizComponent</text>
</g>
<!-- CreateQuizComponent&#45;&gt;AppModule -->
<g class="edge" id="edge4">
<title>CreateQuizComponent&#45;&gt;AppModule</title>
<path d="M5090,-122.16C5090,-144.35 5090,-179 5090,-179 5090,-179 2862.01,-179 2862.01,-179" fill="none" stroke="black"/>
<polygon fill="black" points="2862.01,-175.5 2852.01,-179 2862.01,-182.5 2862.01,-175.5" stroke="black"/>
</g>
<!-- CreateSceneComponent -->
<g class="node" id="node5">
<title>CreateSceneComponent</title>
<polygon fill="#ffffb3" points="4999.79,-122 4848.21,-122 4848.21,-86 4999.79,-86 4999.79,-122" stroke="black"/>
<text font-family="Times,serif" font-size="14.00" text-anchor="middle" x="4924" y="-99.8">CreateSceneComponent</text>
</g>
<!-- CreateSceneComponent&#45;&gt;AppModule -->
<g class="edge" id="edge5">
<title>CreateSceneComponent&#45;&gt;AppModule</title>
<path d="M4924,-122.04C4924,-143.66 4924,-177 4924,-177 4924,-177 2861.75,-177 2861.75,-177" fill="none" stroke="black"/>
<polygon fill="black" points="2861.75,-173.5 2851.75,-177 2861.75,-180.5 2861.75,-173.5" stroke="black"/>
</g>
<!-- CreateTaskComponent -->
<g class="node" id="node6">
<title>CreateTaskComponent</title>
<polygon fill="#ffffb3" points="4830.58,-122 4685.42,-122 4685.42,-86 4830.58,-86 4830.58,-122" stroke="black"/>
<text font-family="Times,serif" font-size="14.00" text-anchor="middle" x="4758" y="-99.8">CreateTaskComponent</text>
</g>
<!-- CreateTaskComponent&#45;&gt;AppModule -->
<g class="edge" id="edge6">
<title>CreateTaskComponent&#45;&gt;AppModule</title>
<path d="M4758,-122.28C4758,-143.32 4758,-175 4758,-175 4758,-175 2862.04,-175 2862.04,-175" fill="none" stroke="black"/>
<polygon fill="black" points="2862.04,-171.5 2852.04,-175 2862.04,-178.5 2862.04,-171.5" stroke="black"/>
</g>
<!-- DashboardComponent -->
<g class="node" id="node7">
<title>DashboardComponent</title>
<polygon fill="#ffffb3" points="4666.97,-122 4525.03,-122 4525.03,-86 4666.97,-86 4666.97,-122" stroke="black"/>
<text font-family="Times,serif" font-size="14.00" text-anchor="middle" x="4596" y="-99.8">DashboardComponent</text>
</g>
<!-- DashboardComponent&#45;&gt;AppModule -->
<g class="edge" id="edge7">
<title>DashboardComponent&#45;&gt;AppModule</title>
<path d="M4596,-122.13C4596,-142.57 4596,-173 4596,-173 4596,-173 2861.95,-173 2861.95,-173" fill="none" stroke="black"/>
<polygon fill="black" points="2861.95,-169.5 2851.95,-173 2861.95,-176.5 2861.95,-169.5" stroke="black"/>
</g>
<!-- FooterComponent -->
<g class="node" id="node8">
<title>FooterComponent</title>
<polygon fill="#ffffb3" points="4506.88,-122 4389.12,-122 4389.12,-86 4506.88,-86 4506.88,-122" stroke="black"/>
<text font-family="Times,serif" font-size="14.00" text-anchor="middle" x="4448" y="-99.8">FooterComponent</text>
</g>
<!-- FooterComponent&#45;&gt;AppModule -->
<g class="edge" id="edge8">
<title>FooterComponent&#45;&gt;AppModule</title>
<path d="M4448,-122.31C4448,-142.15 4448,-171 4448,-171 4448,-171 2861.72,-171 2861.72,-171" fill="none" stroke="black"/>
<polygon fill="black" points="2861.72,-167.5 2851.72,-171 2861.72,-174.5 2861.72,-167.5" stroke="black"/>
</g>
<!-- GroupSessionsComponent -->
<g class="node" id="node9">
<title>GroupSessionsComponent</title>
<polygon fill="#ffffb3" points="4370.82,-122 4205.18,-122 4205.18,-86 4370.82,-86 4370.82,-122" stroke="black"/>
<text font-family="Times,serif" font-size="14.00" text-anchor="middle" x="4288" y="-99.8">GroupSessionsComponent</text>
</g>
<!-- GroupSessionsComponent&#45;&gt;AppModule -->
<g class="edge" id="edge9">
<title>GroupSessionsComponent&#45;&gt;AppModule</title>
<path d="M4288,-122.17C4288,-141.09 4288,-168 4288,-168 4288,-168 2861.85,-168 2861.85,-168" fill="none" stroke="black"/>
<polygon fill="black" points="2861.85,-164.5 2851.85,-168 2861.85,-171.5 2861.85,-164.5" stroke="black"/>
</g>
<!-- GroupSettingsComponent -->
<g class="node" id="node10">
<title>GroupSettingsComponent</title>
<polygon fill="#ffffb3" points="4187.21,-122 4024.79,-122 4024.79,-86 4187.21,-86 4187.21,-122" stroke="black"/>
<text font-family="Times,serif" font-size="14.00" text-anchor="middle" x="4106" y="-99.8">GroupSettingsComponent</text>
</g>
<!-- GroupSettingsComponent&#45;&gt;AppModule -->
<g class="edge" id="edge10">
<title>GroupSettingsComponent&#45;&gt;AppModule</title>
<path d="M4106,-122.27C4106,-140.56 4106,-166 4106,-166 4106,-166 2862.02,-166 2862.02,-166" fill="none" stroke="black"/>
<polygon fill="black" points="2862.02,-162.5 2852.02,-166 2862.02,-169.5 2862.02,-162.5" stroke="black"/>
</g>
<!-- GroupsDashboardComponent -->
<g class="node" id="node11">
<title>GroupsDashboardComponent</title>
<polygon fill="#ffffb3" points="4006.69,-122 3823.31,-122 3823.31,-86 4006.69,-86 4006.69,-122" stroke="black"/>
<text font-family="Times,serif" font-size="14.00" text-anchor="middle" x="3915" y="-99.8">GroupsDashboardComponent</text>
</g>
<!-- GroupsDashboardComponent&#45;&gt;AppModule -->
<g class="edge" id="edge11">
<title>GroupsDashboardComponent&#45;&gt;AppModule</title>
<path d="M3915,-122C3915,-139.68 3915,-164 3915,-164 3915,-164 2861.97,-164 2861.97,-164" fill="none" stroke="black"/>
<polygon fill="black" points="2861.97,-160.5 2851.97,-164 2861.97,-167.5 2861.97,-160.5" stroke="black"/>
</g>
<!-- GroupsModificationComponent -->
<g class="node" id="node12">
<title>GroupsModificationComponent</title>
<polygon fill="#ffffb3" points="3805.64,-122 3610.36,-122 3610.36,-86 3805.64,-86 3805.64,-122" stroke="black"/>
<text font-family="Times,serif" font-size="14.00" text-anchor="middle" x="3708" y="-99.8">GroupsModificationComponent</text>
</g>
<!-- GroupsModificationComponent&#45;&gt;AppModule -->
<g class="edge" id="edge12">
<title>GroupsModificationComponent&#45;&gt;AppModule</title>
<path d="M3708,-122.03C3708,-139.06 3708,-162 3708,-162 3708,-162 2861.81,-162 2861.81,-162" fill="none" stroke="black"/>
<polygon fill="black" points="2861.81,-158.5 2851.81,-162 2861.81,-165.5 2861.81,-158.5" stroke="black"/>
</g>
<!-- GroupsPreviewComponent -->
<g class="node" id="node13">
<title>GroupsPreviewComponent</title>
<polygon fill="#ffffb3" points="3592.41,-122 3423.59,-122 3423.59,-86 3592.41,-86 3592.41,-122" stroke="black"/>
<text font-family="Times,serif" font-size="14.00" text-anchor="middle" x="3508" y="-99.8">GroupsPreviewComponent</text>
</g>
<!-- GroupsPreviewComponent&#45;&gt;AppModule -->
<g class="edge" id="edge13">
<title>GroupsPreviewComponent&#45;&gt;AppModule</title>
<path d="M3508,-122.03C3508,-138.4 3508,-160 3508,-160 3508,-160 2861.83,-160 2861.83,-160" fill="none" stroke="black"/>
<polygon fill="black" points="2861.83,-156.5 2851.83,-160 2861.83,-163.5 2861.83,-156.5" stroke="black"/>
</g>
<!-- HistoryQuizComponent -->
<g class="node" id="node14">
<title>HistoryQuizComponent</title>
<polygon fill="#ffffb3" points="3406.04,-122 3255.96,-122 3255.96,-86 3406.04,-86 3406.04,-122" stroke="black"/>
<text font-family="Times,serif" font-size="14.00" text-anchor="middle" x="3331" y="-99.8">HistoryQuizComponent</text>
</g>
<!-- HistoryQuizComponent&#45;&gt;AppModule -->
<g class="edge" id="edge14">
<title>HistoryQuizComponent&#45;&gt;AppModule</title>
<path d="M3331,-122.28C3331,-137.95 3331,-158 3331,-158 3331,-158 2861.75,-158 2861.75,-158" fill="none" stroke="black"/>
<polygon fill="black" points="2861.75,-154.5 2851.75,-158 2861.75,-161.5 2861.75,-154.5" stroke="black"/>
</g>
<!-- HomeComponent -->
<g class="node" id="node15">
<title>HomeComponent</title>
<polygon fill="#ffffb3" points="3237.55,-122 3122.45,-122 3122.45,-86 3237.55,-86 3237.55,-122" stroke="black"/>
<text font-family="Times,serif" font-size="14.00" text-anchor="middle" x="3180" y="-99.8">HomeComponent</text>
</g>
<!-- HomeComponent&#45;&gt;AppModule -->
<g class="edge" id="edge15">
<title>HomeComponent&#45;&gt;AppModule</title>
<path d="M3180,-122.19C3180,-137.18 3180,-156 3180,-156 3180,-156 2861.72,-156 2861.72,-156" fill="none" stroke="black"/>
<polygon fill="black" points="2861.72,-152.5 2851.72,-156 2861.72,-159.5 2861.72,-152.5" stroke="black"/>
</g>
<!-- JoinQuizComponent -->
<g class="node" id="node16">
<title>JoinQuizComponent</title>
<polygon fill="#ffffb3" points="3103.88,-122 2972.12,-122 2972.12,-86 3103.88,-86 3103.88,-122" stroke="black"/>
<text font-family="Times,serif" font-size="14.00" text-anchor="middle" x="3038" y="-99.8">JoinQuizComponent</text>
</g>
<!-- JoinQuizComponent&#45;&gt;AppModule -->
<g class="edge" id="edge16">
<title>JoinQuizComponent&#45;&gt;AppModule</title>
<path d="M3038,-122.05C3038,-136.37 3038,-154 3038,-154 3038,-154 2861.82,-154 2861.82,-154" fill="none" stroke="black"/>
<polygon fill="black" points="2861.82,-150.5 2851.82,-154 2861.82,-157.5 2861.82,-150.5" stroke="black"/>
</g>
<!-- LoginComponent -->
<g class="node" id="node17">
<title>LoginComponent</title>
<polygon fill="#ffffb3" points="2954.28,-122 2839.72,-122 2839.72,-86 2954.28,-86 2954.28,-122" stroke="black"/>
<text font-family="Times,serif" font-size="14.00" text-anchor="middle" x="2897" y="-99.8">LoginComponent</text>
</g>
<!-- LoginComponent&#45;&gt;AppModule -->
<g class="edge" id="edge17">
<title>LoginComponent&#45;&gt;AppModule</title>
<path d="M2845.72,-122.11C2845.72,-122.11 2845.72,-140.99 2845.72,-140.99" fill="none" stroke="black"/>
<polygon fill="black" points="2842.22,-140.99 2845.72,-150.99 2849.22,-140.99 2842.22,-140.99" stroke="black"/>
</g>
<!-- Muzeum_habsbourgComponent -->
<g class="node" id="node18">
<title>Muzeum_habsbourgComponent</title>
<polygon fill="#ffffb3" points="2821.42,-122 2624.58,-122 2624.58,-86 2821.42,-86 2821.42,-122" stroke="black"/>
<text font-family="Times,serif" font-size="14.00" text-anchor="middle" x="2723" y="-99.8">Muzeum_habsbourgComponent</text>
</g>
<!-- Muzeum_habsbourgComponent&#45;&gt;AppModule -->
<g class="edge" id="edge18">
<title>Muzeum_habsbourgComponent&#45;&gt;AppModule</title>
<path d="M2794.69,-122.11C2794.69,-122.11 2794.69,-140.99 2794.69,-140.99" fill="none" stroke="black"/>
<polygon fill="black" points="2791.19,-140.99 2794.69,-150.99 2798.19,-140.99 2791.19,-140.99" stroke="black"/>
</g>
<!-- NavbarComponent -->
<g class="node" id="node19">
<title>NavbarComponent</title>
<polygon fill="#ffffb3" points="2607.03,-122 2484.97,-122 2484.97,-86 2607.03,-86 2607.03,-122" stroke="black"/>
<text font-family="Times,serif" font-size="14.00" text-anchor="middle" x="2546" y="-99.8">NavbarComponent</text>
</g>
<!-- NavbarComponent&#45;&gt;AppModule -->
<g class="edge" id="edge19">
<title>NavbarComponent&#45;&gt;AppModule</title>
<path d="M2546,-122.05C2546,-136.37 2546,-154 2546,-154 2546,-154 2758.17,-154 2758.17,-154" fill="none" stroke="black"/>
<polygon fill="black" points="2758.17,-157.5 2768.17,-154 2758.17,-150.5 2758.17,-157.5" stroke="black"/>
</g>
<!-- PreviewScenariosComponent -->
<g class="node" id="node20">
<title>PreviewScenariosComponent</title>
<polygon fill="#ffffb3" points="2466.62,-122 2285.38,-122 2285.38,-86 2466.62,-86 2466.62,-122" stroke="black"/>
<text font-family="Times,serif" font-size="14.00" text-anchor="middle" x="2376" y="-99.8">PreviewScenariosComponent</text>
</g>
<!-- PreviewScenariosComponent&#45;&gt;AppModule -->
<g class="edge" id="edge20">
<title>PreviewScenariosComponent&#45;&gt;AppModule</title>
<path d="M2376,-122.19C2376,-137.18 2376,-156 2376,-156 2376,-156 2757.99,-156 2757.99,-156" fill="none" stroke="black"/>
<polygon fill="black" points="2757.99,-159.5 2767.99,-156 2757.99,-152.5 2757.99,-159.5" stroke="black"/>
</g>
<!-- PreviewSceneComponent -->
<g class="node" id="node21">
<title>PreviewSceneComponent</title>
<polygon fill="#ffffb3" points="2267.13,-122 2106.87,-122 2106.87,-86 2267.13,-86 2267.13,-122" stroke="black"/>
<text font-family="Times,serif" font-size="14.00" text-anchor="middle" x="2187" y="-99.8">PreviewSceneComponent</text>
</g>
<!-- PreviewSceneComponent&#45;&gt;AppModule -->
<g class="edge" id="edge21">
<title>PreviewSceneComponent&#45;&gt;AppModule</title>
<path d="M2187,-122.28C2187,-137.95 2187,-158 2187,-158 2187,-158 2758.16,-158 2758.16,-158" fill="none" stroke="black"/>
<polygon fill="black" points="2758.16,-161.5 2768.16,-158 2758.16,-154.5 2758.16,-161.5" stroke="black"/>
</g>
<!-- PreviewTasksComponent -->
<g class="node" id="node22">
<title>PreviewTasksComponent</title>
<polygon fill="#ffffb3" points="2088.86,-122 1929.14,-122 1929.14,-86 2088.86,-86 2088.86,-122" stroke="black"/>
<text font-family="Times,serif" font-size="14.00" text-anchor="middle" x="2009" y="-99.8">PreviewTasksComponent</text>
</g>
<!-- PreviewTasksComponent&#45;&gt;AppModule -->
<g class="edge" id="edge22">
<title>PreviewTasksComponent&#45;&gt;AppModule</title>
<path d="M2009,-122.03C2009,-138.4 2009,-160 2009,-160 2009,-160 2758.34,-160 2758.34,-160" fill="none" stroke="black"/>
<polygon fill="black" points="2758.34,-163.5 2768.34,-160 2758.34,-156.5 2758.34,-163.5" stroke="black"/>
</g>
<!-- ProfileSettingsComponent -->
<g class="node" id="node23">
<title>ProfileSettingsComponent</title>
<polygon fill="#ffffb3" points="1911.05,-122 1746.95,-122 1746.95,-86 1911.05,-86 1911.05,-122" stroke="black"/>
<text font-family="Times,serif" font-size="14.00" text-anchor="middle" x="1829" y="-99.8">ProfileSettingsComponent</text>
</g>
<!-- ProfileSettingsComponent&#45;&gt;AppModule -->
<g class="edge" id="edge23">
<title>ProfileSettingsComponent&#45;&gt;AppModule</title>
<path d="M1829,-122.03C1829,-139.06 1829,-162 1829,-162 1829,-162 2758.16,-162 2758.16,-162" fill="none" stroke="black"/>
<polygon fill="black" points="2758.16,-165.5 2768.16,-162 2758.16,-158.5 2758.16,-165.5" stroke="black"/>
</g>
<!-- RegistrationComponent -->
<g class="node" id="node24">
<title>RegistrationComponent</title>
<polygon fill="#ffffb3" points="1728.77,-122 1579.23,-122 1579.23,-86 1728.77,-86 1728.77,-122" stroke="black"/>
<text font-family="Times,serif" font-size="14.00" text-anchor="middle" x="1654" y="-99.8">RegistrationComponent</text>
</g>
<!-- RegistrationComponent&#45;&gt;AppModule -->
<g class="edge" id="edge24">
<title>RegistrationComponent&#45;&gt;AppModule</title>
<path d="M1629.04,-122.27C1629.04,-140.56 1629.04,-166 1629.04,-166 1629.04,-166 2758.32,-166 2758.32,-166" fill="none" stroke="black"/>
<polygon fill="black" points="2758.32,-169.5 2768.32,-166 2758.32,-162.5 2758.32,-169.5" stroke="black"/>
</g>
<!-- RegistrationComponent&#45;&gt;AppModule -->
<g class="edge" id="edge25">
<title>RegistrationComponent&#45;&gt;AppModule</title>
<path d="M1678.96,-122C1678.96,-139.68 1678.96,-164 1678.96,-164 1678.96,-164 2758.07,-164 2758.07,-164" fill="none" stroke="black"/>
<polygon fill="black" points="2758.07,-167.5 2768.07,-164 2758.07,-160.5 2758.07,-167.5" stroke="black"/>
</g>
<!-- SceneComponent -->
<g class="node" id="node25">
<title>SceneComponent</title>
<polygon fill="#ffffb3" points="1561.26,-122 1446.74,-122 1446.74,-86 1561.26,-86 1561.26,-122" stroke="black"/>
<text font-family="Times,serif" font-size="14.00" text-anchor="middle" x="1504" y="-99.8">SceneComponent</text>
</g>
<!-- SceneComponent&#45;&gt;AppModule -->
<g class="edge" id="edge26">
<title>SceneComponent&#45;&gt;AppModule</title>
<path d="M1504,-122.17C1504,-141.09 1504,-168 1504,-168 1504,-168 2758.03,-168 2758.03,-168" fill="none" stroke="black"/>
<polygon fill="black" points="2758.03,-171.5 2768.03,-168 2758.03,-164.5 2758.03,-171.5" stroke="black"/>
</g>
<!-- TaskHistoryExtendedComponent -->
<g class="node" id="node26">
<title>TaskHistoryExtendedComponent</title>
<polygon fill="#ffffb3" points="1428.91,-122 1225.09,-122 1225.09,-86 1428.91,-86 1428.91,-122" stroke="black"/>
<text font-family="Times,serif" font-size="14.00" text-anchor="middle" x="1327" y="-99.8">TaskHistoryExtendedComponent</text>
</g>
<!-- TaskHistoryExtendedComponent&#45;&gt;AppModule -->
<g class="edge" id="edge27">
<title>TaskHistoryExtendedComponent&#45;&gt;AppModule</title>
<path d="M1327,-122.31C1327,-142.15 1327,-171 1327,-171 1327,-171 2758.01,-171 2758.01,-171" fill="none" stroke="black"/>
<polygon fill="black" points="2758.01,-174.5 2768.01,-171 2758.01,-167.5 2758.01,-174.5" stroke="black"/>
</g>
<!-- TaskHistoryStatisticsComponent -->
<g class="node" id="node27">
<title>TaskHistoryStatisticsComponent</title>
<polygon fill="#ffffb3" points="1207.59,-122 1006.41,-122 1006.41,-86 1207.59,-86 1207.59,-122" stroke="black"/>
<text font-family="Times,serif" font-size="14.00" text-anchor="middle" x="1107" y="-99.8">TaskHistoryStatisticsComponent</text>
</g>
<!-- TaskHistoryStatisticsComponent&#45;&gt;AppModule -->
<g class="edge" id="edge28">
<title>TaskHistoryStatisticsComponent&#45;&gt;AppModule</title>
<path d="M1107,-122.13C1107,-142.57 1107,-173 1107,-173 1107,-173 2758.33,-173 2758.33,-173" fill="none" stroke="black"/>
<polygon fill="black" points="2758.33,-176.5 2768.33,-173 2758.33,-169.5 2758.33,-176.5" stroke="black"/>
</g>
<!-- UserProfileComponent -->
<g class="node" id="node28">
<title>UserProfileComponent</title>
<polygon fill="#ffffb3" points="988.86,-122 843.14,-122 843.14,-86 988.86,-86 988.86,-122" stroke="black"/>
<text font-family="Times,serif" font-size="14.00" text-anchor="middle" x="916" y="-99.8">UserProfileComponent</text>
</g>
<!-- UserProfileComponent&#45;&gt;AppModule -->
<g class="edge" id="edge29">
<title>UserProfileComponent&#45;&gt;AppModule</title>
<path d="M916,-122.28C916,-143.32 916,-175 916,-175 916,-175 2758.23,-175 2758.23,-175" fill="none" stroke="black"/>
<polygon fill="black" points="2758.23,-178.5 2768.23,-175 2758.23,-171.5 2758.23,-178.5" stroke="black"/>
</g>
<!-- UserSettingsComponent -->
<g class="node" id="node29">
<title>UserSettingsComponent</title>
<polygon fill="#ffffb3" points="825.37,-122 672.63,-122 672.63,-86 825.37,-86 825.37,-122" stroke="black"/>
<text font-family="Times,serif" font-size="14.00" text-anchor="middle" x="749" y="-99.8">UserSettingsComponent</text>
</g>
<!-- UserSettingsComponent&#45;&gt;AppModule -->
<g class="edge" id="edge30">
<title>UserSettingsComponent&#45;&gt;AppModule</title>
<path d="M749,-122.04C749,-143.66 749,-177 749,-177 749,-177 2757.9,-177 2757.9,-177" fill="none" stroke="black"/>
<polygon fill="black" points="2757.9,-180.5 2767.9,-177 2757.9,-173.5 2757.9,-180.5" stroke="black"/>
</g>
<!-- UsersDashboardComponent -->
<g class="node" id="node30">
<title>UsersDashboardComponent</title>
<polygon fill="#ffffb3" points="654.84,-122 481.16,-122 481.16,-86 654.84,-86 654.84,-122" stroke="black"/>
<text font-family="Times,serif" font-size="14.00" text-anchor="middle" x="568" y="-99.8">UsersDashboardComponent</text>
</g>
<!-- UsersDashboardComponent&#45;&gt;AppModule -->
<g class="edge" id="edge31">
<title>UsersDashboardComponent&#45;&gt;AppModule</title>
<path d="M568,-122.16C568,-144.35 568,-179 568,-179 568,-179 2758.2,-179 2758.2,-179" fill="none" stroke="black"/>
<polygon fill="black" points="2758.2,-182.5 2768.2,-179 2758.2,-175.5 2758.2,-182.5" stroke="black"/>
</g>
<!-- AppComponent  -->
<g class="node" id="node33">
<title>AppComponent </title>
<polygon fill="#80b1d3" points="2864.44,-252 2755.56,-252 2755.56,-216 2864.44,-216 2864.44,-252" stroke="black"/>
<text font-family="Times,serif" font-size="14.00" text-anchor="middle" x="2810" y="-229.8">AppComponent </text>
</g>
<!-- AppModule&#45;&gt;AppComponent  -->
<g class="edge" id="edge33">
<title>AppModule&#45;&gt;AppComponent </title>
<path d="M2810,-187.11C2810,-187.11 2810,-205.99 2810,-205.99" fill="none" stroke="black" stroke-dasharray="1,5"/>
<polygon fill="black" points="2806.5,-205.99 2810,-215.99 2813.5,-205.99 2806.5,-205.99" stroke="black"/>
</g>
<!-- AppRoutingModule -->
<g class="node" id="node32">
<title>AppRoutingModule</title>
<polygon fill="#8dd3c7" points="457.27,-122 454.27,-126 433.27,-126 430.27,-122 328.73,-122 328.73,-86 457.27,-86 457.27,-122" stroke="black"/>
<text font-family="Times,serif" font-size="14.00" text-anchor="middle" x="393" y="-99.8">AppRoutingModule</text>
</g>
<!-- AppRoutingModule&#45;&gt;AppModule -->
<g class="edge" id="edge32">
<title>AppRoutingModule&#45;&gt;AppModule</title>
<path d="M393,-122.25C393,-145.02 393,-181 393,-181 393,-181 2758.3,-181 2758.3,-181" fill="none" stroke="black"/>
<polygon fill="black" points="2758.3,-184.5 2768.3,-181 2758.3,-177.5 2758.3,-184.5" stroke="black"/>
</g>
<!-- AuthInterceptor -->
<g class="node" id="node34">
<title>AuthInterceptor</title>
<ellipse cx="232" cy="-104" fill="#fdb462" rx="72.91" ry="18" stroke="black"/>
<text font-family="Times,serif" font-size="14.00" text-anchor="middle" x="232" y="-99.8">AuthInterceptor</text>
</g>
<!-- AuthInterceptor&#45;&gt;AppModule -->
<g class="edge" id="edge34">
<title>AuthInterceptor&#45;&gt;AppModule</title>
<path d="M232,-122.32C232,-145.66 232,-183 232,-183 232,-183 2758.2,-183 2758.2,-183" fill="none" stroke="black"/>
<polygon fill="black" points="2758.2,-186.5 2768.2,-183 2758.2,-179.5 2758.2,-186.5" stroke="black"/>
</g>
<!-- UtilsService -->
<g class="node" id="node35">
<title>UtilsService</title>
<ellipse cx="83" cy="-104" fill="#fdb462" rx="58.54" ry="18" stroke="black"/>
<text font-family="Times,serif" font-size="14.00" text-anchor="middle" x="83" y="-99.8">UtilsService</text>
</g>
<!-- UtilsService&#45;&gt;AppModule -->
<g class="edge" id="edge35">
<title>UtilsService&#45;&gt;AppModule</title>
<path d="M83,-122.38C83,-146.28 83,-185 83,-185 83,-185 2758.26,-185 2758.26,-185" fill="none" stroke="black"/>
<polygon fill="black" points="2758.26,-188.5 2768.26,-185 2758.26,-181.5 2758.26,-188.5" stroke="black"/>
</g>
</g>
</svg>
